<svg xmlns="http://www.w3.org/2000/svg" width="262.017" height="116.358" viewBox="0 0 262.017 116.358">
  <g id="logo-256" transform="translate(3.008 3)">
    <path id="Path_1461" data-name="Path 1461" d="M1021.247,4540.656l-21.33-16h42.659l-21.33-21.331h37.327c2.968-4.417,5.619-12.79,5.333-21.331H999.917a63.99,63.99,0,0,0-63.99,63.99h63.99C1007.1,4545.988,1013.248,4545.988,1021.247,4540.656Z" transform="translate(-807.928 -4481.998)" fill="none" stroke="#ff4500" stroke-miterlimit="10" stroke-width="6"/>
    <path id="Path_1462" data-name="Path 1462" d="M546.537,4540.656l21.33-16h-42.66l21.33-21.331H509.21c-2.968-4.417-5.62-12.79-5.333-21.331h63.989a63.99,63.99,0,0,1,63.989,63.99H567.866C560.685,4545.988,554.535,4545.988,546.537,4540.656Z" transform="translate(-503.856 -4481.998)" fill="none" stroke="#ff4500" stroke-miterlimit="10" stroke-width="6"/>
    <line id="Line_32" data-name="Line 32" x2="14.812" transform="translate(91.858 85.319)" fill="none" stroke="#ff4500" stroke-miterlimit="10" stroke-width="6"/>
    <path id="Path_1463" data-name="Path 1463" d="M1021.158,4698h0a42.664,42.664,0,0,1-24.74,38.725" transform="translate(-850.498 -4634.01)" fill="none" stroke="#ff4500" stroke-miterlimit="10" stroke-width="6"/>
    <path id="Path_1464" data-name="Path 1464" d="M877.3,4596.658A42.618,42.618,0,0,0,834.638,4554h0a42.66,42.66,0,0,0-42.638,41.3" transform="translate(-706.638 -4532.668)" fill="none" stroke="#ff4500" stroke-miterlimit="10" stroke-width="6"/>
    <path id="Path_1465" data-name="Path 1465" d="M818.1,4734.122a42.675,42.675,0,0,1-26.175-39.358h0q0-.683.022-1.363" transform="translate(-706.587 -4630.775)" fill="none" stroke="#ff4500" stroke-miterlimit="10" stroke-width="6"/>
    <path id="Path_1466" data-name="Path 1466" d="M880.986,4698H862.3l-21.329,42.662L819.642,4698H801" transform="translate(-712.972 -4634.01)" fill="none" stroke="#ff4500" stroke-miterlimit="10" stroke-width="6"/>
  </g>
</svg>
