<svg xmlns="http://www.w3.org/2000/svg" width="197.013" height="88.077" viewBox="0 0 197.013 88.077">
  <g id="logo-192" transform="translate(2.506 2.5)">
    <path id="Path_1461" data-name="Path 1461" d="M999.917,4525.992l-16-12h31.995l-16-16h28c2.226-3.312,4.215-9.593,4-16H983.92a47.993,47.993,0,0,0-47.992,47.993H983.92C989.306,4529.991,993.918,4529.991,999.917,4525.992Z" transform="translate(-839.927 -4481.998)" fill="none" stroke="#ff4500" stroke-miterlimit="10" stroke-width="5"/>
    <path id="Path_1462" data-name="Path 1462" d="M535.866,4525.992l16-12H519.869l16-16h-28c-2.226-3.312-4.215-9.593-4-16h47.992a47.992,47.992,0,0,1,47.992,47.993H551.864C546.478,4529.991,541.865,4529.991,535.866,4525.992Z" transform="translate(-503.856 -4481.998)" fill="none" stroke="#ff4500" stroke-miterlimit="10" stroke-width="5"/>
    <line id="Line_32" data-name="Line 32" x2="11.109" transform="translate(68.894 63.989)" fill="none" stroke="#ff4500" stroke-miterlimit="10" stroke-width="5"/>
    <path id="Path_1463" data-name="Path 1463" d="M1014.973,4698h0a32,32,0,0,1-18.555,29.044" transform="translate(-886.978 -4650.007)" fill="none" stroke="#ff4500" stroke-miterlimit="10" stroke-width="5"/>
    <path id="Path_1464" data-name="Path 1464" d="M855.973,4585.993a31.962,31.962,0,0,0-31.994-32h0A32,32,0,0,0,792,4584.97" transform="translate(-727.979 -4538)" fill="none" stroke="#ff4500" stroke-miterlimit="10" stroke-width="5"/>
    <path id="Path_1465" data-name="Path 1465" d="M811.559,4723.942a32.006,32.006,0,0,1-19.631-29.519h0q0-.512.016-1.022" transform="translate(-727.922 -4646.432)" fill="none" stroke="#ff4500" stroke-miterlimit="10" stroke-width="5"/>
    <path id="Path_1466" data-name="Path 1466" d="M860.99,4698H846.976l-16,32-16-32H801" transform="translate(-734.979 -4650.007)" fill="none" stroke="#ff4500" stroke-miterlimit="10" stroke-width="5"/>
  </g>
</svg>
