<svg id="arrow-left" xmlns="http://www.w3.org/2000/svg" width="32" height="48" viewBox="0 0 32 48">
  <g id="arrow-left-2" data-name="arrow-left" transform="translate(0 48) rotate(-90)" fill="none" stroke-linejoin="bevel">
    <path d="M23.2,1.067a1,1,0,0,1,1.6,0L46.8,30.4A1,1,0,0,1,46,32H2a1,1,0,0,1-.8-1.6Z" stroke="none"/>
    <path d="M 24 5.000001907348633 L 6.000003814697266 28.99999618530273 L 42 28.99999618530273 L 24 5.000001907348633 M 24.00000190734863 0.6666698455810547 C 24.30000114440918 0.6666698455810547 24.60000228881836 0.8000011444091797 24.80000114440918 1.066665649414063 L 46.80000305175781 30.39999580383301 C 47.29443359375 31.05923652648926 46.82404327392578 31.99999618530273 46 31.99999618530273 L 2.000003814697266 31.99999618530273 C 1.175952911376953 31.99999618530273 0.7055702209472656 31.05923652648926 1.200000762939453 30.39999580383301 L 23.20000267028809 1.066665649414063 C 23.40000152587891 0.8000011444091797 23.70000267028809 0.6666698455810547 24.00000190734863 0.6666698455810547 Z" stroke="none" fill="#fff"/>
  </g>
</svg>
