<svg xmlns="http://www.w3.org/2000/svg" width="1497.434" height="626.227" viewBox="0 0 1497.434 626.227">
  <g id="logo" transform="translate(1.006 1)" opacity="0.75">
    <path id="Path_1461" data-name="Path 1461" d="M1434.318,4824.648l-124.6-93.446h249.194l-124.6-124.606h218.045c17.337-25.795,32.826-74.71,31.15-124.6H1309.721c-206.441,0-373.794,167.359-373.794,373.8h373.794C1351.672,4855.793,1387.6,4855.793,1434.318,4824.648Z" transform="translate(-188.217 -4481.998)" fill="none" stroke="#c7c7c7" stroke-miterlimit="10" stroke-width="2" stroke-dasharray="1 31"/>
    <path id="Path_1462" data-name="Path 1462" d="M753.175,4824.648l124.6-93.446H628.577l124.6-124.606H535.13c-17.337-25.795-32.827-74.71-31.15-124.6H877.772c206.441,0,373.793,167.359,373.793,373.8H877.772C835.823,4855.793,799.9,4855.793,753.175,4824.648Z" transform="translate(-503.856 -4481.998)" fill="none" stroke="#c7c7c7" stroke-miterlimit="10" stroke-width="2" stroke-dasharray="1 31"/>
    <line id="Line_32" data-name="Line 32" x2="86.526" transform="translate(536.589 498.388)" fill="none" stroke="#c7c7c7" stroke-miterlimit="10" stroke-width="2" stroke-dasharray="1 31"/>
    <path id="Path_1463" data-name="Path 1463" d="M1140.935,4698h0c0,100.256-59.186,186.66-144.517,226.21" transform="translate(-144.028 -4324.213)" fill="none" stroke="#c7c7c7" stroke-miterlimit="10" stroke-width="2" stroke-dasharray="1 31"/>
    <path id="Path_1464" data-name="Path 1464" d="M1290.262,4803.2c0-108.491-69.32-200.774-166.077-235a248.811,248.811,0,0,0-83.115-14.2h0C906.105,4554,796.2,4661.3,792,4795.23" transform="translate(-293.359 -4429.4)" fill="none" stroke="#c7c7c7" stroke-miterlimit="10" stroke-width="2" stroke-dasharray="1 31"/>
    <path id="Path_1465" data-name="Path 1465" d="M944.826,4931.267c-89.813-37.661-152.9-126.428-152.9-229.9h0q0-3.992.126-7.964" transform="translate(-293.414 -4327.571)" fill="none" stroke="#c7c7c7" stroke-miterlimit="10" stroke-width="2" stroke-dasharray="1 31"/>
    <path id="Path_1466" data-name="Path 1466" d="M1268.239,4698H1159.091L1034.5,4947.2,909.9,4698H801" transform="translate(-286.785 -4324.213)" fill="none" stroke="#c7c7c7" stroke-miterlimit="10" stroke-width="2" stroke-dasharray="1 31"/>
  </g>
</svg>
